# xmcd CD database file
#
# Track frame offsets:
#	150
#	11313
#	34582
#	50862
#	63201
#	76929
#	91436
#	108434
#	119756
#	133695
#	147318
#	160846
#	175506
#	190414
#
# Disc length: 2659 seconds
#
# Revision: 0
# Processed by: cddbd v1.5.2PL0 Copyright (c) Steve Scherf et al.
# Submitted via: CDex 1.51
#
DISCID=ba0a610e
DTITLE=Heather Berry and The Berry Pickers - Heaven's Bluegrass Band
DYEAR=1900
DGENRE=Country
TTITLE0=Heaven's Bluegrass Band
TTITLE1=The Prettiest Flowers
TTITLE2=I'll Be All Smiles Tonight
TTITLE3=Blue Birds Singing For Me
TTITLE4=He Touched Me
TTITLE5=Torrey Mountain Rag
TTITLE6=Angels Watch Over Me
TTITLE7=When The Roll Is Called Up Yonder
TTITLE8=God On The Mountain
TTITLE9=Bury Me Beneath The Willow
TTITLE10=Someone Who Cares
TTITLE11=When I Stop Dreaming
TTITLE12=Beneath The Shadow of the Pine
TTITLE13=America the Beautiful
EXTD=
EXTT0=
EXTT1=
EXTT2=
EXTT3=
EXTT4=
EXTT5=
EXTT6=
EXTT7=
EXTT8=
EXTT9=
EXTT10=
EXTT11=
EXTT12=
EXTT13=
PLAYORDER=
